HIERARCHY
ROOT pelvis
{
  OFFSET 0 100 0
  CHANNELS 6 Xposition Yposition Zposition Zrotation Xrotation Yrotation
  JOINT pelvis_right_femur
  {
    OFFSET -10.78128 -3.44521 -0.5502486
    CHANNELS 3 Zrotation Xrotation Yrotation
    JOINT right_femur_tibia
    {
      OFFSET -0.8047443 -44.0398 -0.1307829
      CHANNELS 3 Zrotation Xrotation Yrotation
      JOINT right_tibia_foot
      {
        OFFSET 3.006224 -47.83518 -5
        CHANNELS 3 Zrotation Xrotation Yrotation
        End Site
        {
          OFFSET 0 -5 15
        }
      }
    }
  }
  JOINT pelvis_left_femur
  {
    OFFSET 10.78128 -3.44521 -0.5502486
    CHANNELS 3 Zrotation Xrotation Yrotation
    JOINT left_femur_tibia
    {
      OFFSET 0.8047443 -44.0398 -0.1307829
      CHANNELS 3 Zrotation Xrotation Yrotation
      JOINT left_tibia_foot
      {
        OFFSET -4.370144 -48.10324 -4.275266
        CHANNELS 3 Zrotation Xrotation Yrotation
        End Site
        {
          OFFSET 0 -5 15
        }
      }
    }
  }
  JOINT pelvis_spine1
  {
    OFFSET 0 6.468898 -3.129235
    CHANNELS 3 Zrotation Xrotation Yrotation
    JOINT spine1
    {
      OFFSET 0 23.15396 4.99043
      CHANNELS 3 Zrotation Xrotation Yrotation
      JOINT spine2
      {
        OFFSET 0 20.79997 -5.064912
        CHANNELS 3 Zrotation Xrotation Yrotation
        JOINT neck
        {
          OFFSET 0 14.38658 9.616178
          CHANNELS 3 Zrotation Xrotation Yrotation
          End Site
          {
            OFFSET 0 20 0
          }
        }
      }
      JOINT right_manubrium
      {
        OFFSET -5.722621 16.35077 3.967754
        CHANNELS 3 Zrotation Xrotation Yrotation
        JOINT right_clavicle
        {
          OFFSET -13.16364 1.694482 -4.693211
          CHANNELS 3 Zrotation Xrotation Yrotation
          JOINT right_humerus
          {
            OFFSET -28.5034 -0.3100689 -2.792744
            CHANNELS 3 Zrotation Xrotation Yrotation
            JOINT right_radius
            {
              OFFSET -25.15693 0.02248979 -1.271978
              CHANNELS 3 Zrotation Xrotation Yrotation
              End Site
              {
                OFFSET -15 0 0
              }
            }
          }
        }
      }
      JOINT left_manubrium
      {
        OFFSET 5.722621 16.35077 3.967754
        CHANNELS 3 Zrotation Xrotation Yrotation
        JOINT left_clavicle
        {
          OFFSET 13.16364 1.694482 -4.693211
          CHANNELS 3 Zrotation Xrotation Yrotation
          JOINT left_humerus
          {
            OFFSET 29.39168 -1.063119 -2.237045
            CHANNELS 3 Zrotation Xrotation Yrotation
            JOINT left_radius
            {
              OFFSET 24.59957 -0.9528479 0.9047498
              CHANNELS 3 Zrotation Xrotation Yrotation
              End Site
              {
                OFFSET 15 -0 -0
              }
            }
          }
        }
      }
    }
  }
}
MOTION
Frames: 7
Frame Time: 0.0416666666667
0 103.5113 0 0.9679196 -2.384056 0.0261732 3.583558 -15.02503 8.07341 -0 40.79481 -0 -5.421521 -14.37326 -3.808522 -6.990828 13.45867 -26.30401 -0 4.480679 -0 -0.9220523 -21.47194 24.96421 -2.626403 -3.043482 4.181618 0.3406972 8.157198 -6.716197 1.133372 23.29954 8.784433 5.185869 -21.14257 9.056649 6.993861 -19.05157 10.99237 87.53429 38.4606 -21.73773 -0 0 16.41037 -7.994756 10.84892 3.281864 6.095909 -19.46149 -3.33367 -101.849 42.67252 29.72491 0 0 -23.51836 -11.48272 18.70152 28.73666
0.1659974 103.4577 1.173934 0.728146 -1.936383 0.008406159 4.064111 -16.00267 8.319713 -0 40.54338 -0 -5.684489 -13.73594 -3.729831 -6.786947 13.52713 -26.16732 -0 4.836932 -0 -1.54566 -21.74776 24.55488 -2.33041 -3.002591 4.255087 0.287005 8.122381 -6.819209 1.156282 22.9948 8.755876 5.404406 -21.41938 8.889559 7.09533 -19.0813 10.92054 87.43465 38.38632 -21.91014 -0 0 16.69838 -7.483765 10.44682 2.982641 6.336663 -19.66687 -3.162967 -102.1666 42.69232 30.10849 0 0 -23.66484 -11.31488 18.54236 28.83472
0.213798 102.8354 3.621064 0.2820167 -0.8230426 0.1822614 3.38958 -23.79751 5.683165 -0 29.48107 -0 -5.557764 -11.53099 -4.754578 -5.480476 14.65009 -21.50247 -0 6.306912 -0 -2.683711 -21.49493 18.99149 -2.900176 -1.293956 2.694919 1.78005 7.321216 -7.908077 1.108092 22.67655 8.227927 4.343352 -21.65441 8.843367 6.09205 -16.89655 10.63861 87.586 37.17404 -22.09883 -0 0 13.75677 -10.79417 10.91911 6.047225 5.492742 -19.87892 -3.58507 -93.46401 38.37803 20.43556 0 0 -24.21567 -7.639595 15.73742 23.55366
0.2019037 101.8679 6.613204 0.2354239 -0.7415995 0.4582249 2.763479 -26.58265 4.042319 -0 24.38106 -0 -5.582632 -10.79503 -5.245629 -5.003392 15.52264 -19.27668 -0 7.035906 -0 -2.772982 -21.40466 16.39086 -3.383522 -0.4671456 1.798565 2.709776 6.910719 -8.323511 1.100267 22.80763 7.676154 3.505529 -21.8766 8.742739 5.285005 -15.99472 10.61494 87.66082 35.52128 -21.89635 -0 0 12.13373 -12.07124 10.3536 7.601626 4.699174 -19.6083 -3.925077 -90.00683 35.92152 16.39998 0 0 -23.97855 -6.190494 14.20372 21.01988
0.1770684 100.5458 9.873998 0.8353193 -1.519129 0.8305633 1.259754 -26.39971 2.140237 -0 21.12542 -0 -5.444935 -10.98804 -5.801868 -5.0661 16.23649 -17.43486 -0 6.255364 -0 -1.481068 -21.2774 14.92913 -4.493391 0.006864472 0.9894273 3.697335 6.710872 -8.541002 0.990833 23.40908 6.94776 2.376159 -21.81823 8.52916 4.385245 -15.4924 10.81262 87.72622 33.44679 -21.37145 -0 0 10.491 -13.51774 9.404275 9.397579 3.45277 -18.97266 -4.517627 -87.1959 33.55608 13.09108 0 0 -23.12256 -5.45645 12.71544 18.77397
0.1931491 98.93626 13.39749 1.549484 -2.147112 1.31642 -0.1055933 -25.46319 0.7142463 -0 18.80163 -0 -5.297639 -10.74959 -6.235998 -5.301102 16.63214 -15.67864 -0 4.438103 -0 -0.237524 -21.58499 14.15583 -5.455255 0.07091231 0.6386171 4.32136 6.823398 -8.788281 0.7893779 23.70074 6.414719 1.644549 -21.71074 8.122901 3.694289 -15.39503 11.0234 87.90395 31.65514 -21.22418 -0 0 9.421772 -14.80608 8.531665 10.71623 2.784299 -18.94417 -4.909378 -85.17229 31.26905 10.71186 0 0 -22.80028 -4.628879 11.3586 16.6993
0.2797831 97.11291 17.21812 2.124591 -2.453104 1.899879 -1.022884 -24.66606 -0.1158536 -0 17.03165 -0 -5.044954 -10.0521 -6.576008 -5.529876 16.78957 -14.12443 -0 2.733622 -0 0.4861179 -22.04695 13.79316 -6.020896 -0.09913688 0.6543855 4.556479 7.130169 -9.047686 0.5745513 23.61232 6.16309 1.370834 -21.55191 7.686002 3.279507 -15.47152 11.16906 88.16058 30.42662 -21.44537 -0 0 8.883986 -15.88325 8.077229 11.46465 2.755344 -19.43198 -5.075502 -83.81949 29.24608 9.07995 0 0 -23.07194 -3.653426 10.18422 14.94086
